<mxfile host="app.diagrams.net" modified="2020-08-06T10:12:46.884Z" agent="5.0 (X11; Linux x86_64) AppleWebKit/537.36 (KHTML, like Gecko) Chrome/74.0.3729.108 Safari/537.36" etag="HuPVc6_dNyT9y4bk3SjE" version="13.5.9" type="github">
  <diagram id="C5RBs43oDa-KdzZeNtuy" name="Page-1">
    <mxGraphModel dx="1275" dy="1620" grid="1" gridSize="10" guides="1" tooltips="1" connect="1" arrows="1" fold="1" page="1" pageScale="1" pageWidth="1169" pageHeight="827" math="0" shadow="0">
      <root>
        <mxCell id="WIyWlLk6GJQsqaUBKTNV-0" />
        <mxCell id="WIyWlLk6GJQsqaUBKTNV-1" parent="WIyWlLk6GJQsqaUBKTNV-0" />
        <mxCell id="WIyWlLk6GJQsqaUBKTNV-2" value="" style="rounded=0;html=1;jettySize=auto;orthogonalLoop=1;fontSize=11;endArrow=block;endFill=0;endSize=8;strokeWidth=1;shadow=0;labelBackgroundColor=none;edgeStyle=orthogonalEdgeStyle;" parent="WIyWlLk6GJQsqaUBKTNV-1" source="WIyWlLk6GJQsqaUBKTNV-3" target="WIyWlLk6GJQsqaUBKTNV-6" edge="1">
          <mxGeometry relative="1" as="geometry" />
        </mxCell>
        <mxCell id="WIyWlLk6GJQsqaUBKTNV-3" value="&lt;p&gt;&lt;font style=&quot;font-size: 10px&quot;&gt;Вызов функциии get_next_line&lt;/font&gt;&lt;/p&gt;" style="rounded=1;whiteSpace=wrap;html=1;fontSize=12;glass=0;strokeWidth=1;shadow=0;fillColor=#FFCCE6;" parent="WIyWlLk6GJQsqaUBKTNV-1" vertex="1">
          <mxGeometry x="80" y="-778" width="120" height="40" as="geometry" />
        </mxCell>
        <mxCell id="JRrfS-yPoG9nIiZqx5cY-15" value="Да" style="edgeStyle=orthogonalEdgeStyle;rounded=0;orthogonalLoop=1;jettySize=auto;html=1;exitX=1;exitY=0.5;exitDx=0;exitDy=0;entryX=0;entryY=0.5;entryDx=0;entryDy=0;fillColor=#FFFFCC;" parent="WIyWlLk6GJQsqaUBKTNV-1" source="WIyWlLk6GJQsqaUBKTNV-6" target="JRrfS-yPoG9nIiZqx5cY-0" edge="1">
          <mxGeometry relative="1" as="geometry" />
        </mxCell>
        <mxCell id="JpuGTRcXN1fG5s5tW_W7-32" value="Нет" style="edgeStyle=orthogonalEdgeStyle;rounded=0;orthogonalLoop=1;jettySize=auto;html=1;exitX=0.5;exitY=0;exitDx=0;exitDy=0;entryX=0.5;entryY=0;entryDx=0;entryDy=0;" parent="WIyWlLk6GJQsqaUBKTNV-1" source="WIyWlLk6GJQsqaUBKTNV-6" target="JpuGTRcXN1fG5s5tW_W7-31" edge="1">
          <mxGeometry relative="1" as="geometry">
            <Array as="points">
              <mxPoint x="280" y="-800" />
              <mxPoint x="1025" y="-800" />
              <mxPoint x="1025" y="-778" />
            </Array>
          </mxGeometry>
        </mxCell>
        <mxCell id="WIyWlLk6GJQsqaUBKTNV-6" value="&lt;font style=&quot;font-size: 10px&quot;&gt;Входные парамерт валидны?&lt;/font&gt;" style="rhombus;whiteSpace=wrap;html=1;shadow=0;fontFamily=Helvetica;fontSize=12;align=center;strokeWidth=1;spacing=6;spacingTop=-4;fillColor=#FFFFCC;" parent="WIyWlLk6GJQsqaUBKTNV-1" vertex="1">
          <mxGeometry x="230" y="-798" width="100" height="80" as="geometry" />
        </mxCell>
        <mxCell id="JRrfS-yPoG9nIiZqx5cY-9" value="" style="edgeStyle=orthogonalEdgeStyle;rounded=0;orthogonalLoop=1;jettySize=auto;html=1;fillColor=#FFFFCC;" parent="WIyWlLk6GJQsqaUBKTNV-1" source="JRrfS-yPoG9nIiZqx5cY-0" target="JRrfS-yPoG9nIiZqx5cY-8" edge="1">
          <mxGeometry relative="1" as="geometry" />
        </mxCell>
        <mxCell id="JRrfS-yPoG9nIiZqx5cY-0" value="&lt;font style=&quot;font-size: 10px&quot;&gt;Выделение памяти под &#39;\0&#39; и присвоедние к указателю line&lt;/font&gt;" style="whiteSpace=wrap;html=1;shadow=0;strokeWidth=1;spacing=6;spacingTop=-4;fillColor=#FFFFCC;" parent="WIyWlLk6GJQsqaUBKTNV-1" vertex="1">
          <mxGeometry x="370" y="-783" width="120" height="50" as="geometry" />
        </mxCell>
        <mxCell id="JRrfS-yPoG9nIiZqx5cY-19" value="Нет" style="edgeStyle=orthogonalEdgeStyle;rounded=0;orthogonalLoop=1;jettySize=auto;html=1;" parent="WIyWlLk6GJQsqaUBKTNV-1" source="JRrfS-yPoG9nIiZqx5cY-5" target="JpuGTRcXN1fG5s5tW_W7-18" edge="1">
          <mxGeometry relative="1" as="geometry">
            <mxPoint x="670" y="-650" as="targetPoint" />
          </mxGeometry>
        </mxCell>
        <mxCell id="APc1HOjJ6p6l4onspKUv-2" value="Да" style="edgeStyle=orthogonalEdgeStyle;rounded=0;orthogonalLoop=1;jettySize=auto;html=1;exitX=0;exitY=0.5;exitDx=0;exitDy=0;entryX=0.5;entryY=0;entryDx=0;entryDy=0;" parent="WIyWlLk6GJQsqaUBKTNV-1" source="JRrfS-yPoG9nIiZqx5cY-5" target="JRrfS-yPoG9nIiZqx5cY-12" edge="1">
          <mxGeometry relative="1" as="geometry">
            <mxPoint x="405" y="-460" as="targetPoint" />
            <Array as="points">
              <mxPoint x="405" y="-650" />
            </Array>
          </mxGeometry>
        </mxCell>
        <mxCell id="JRrfS-yPoG9nIiZqx5cY-5" value="&lt;font style=&quot;font-size: 10px&quot;&gt;status == 2 ?&lt;/font&gt;" style="rhombus;whiteSpace=wrap;html=1;shadow=0;strokeWidth=1;spacing=6;spacingTop=-4;fillColor=#FFFFCC;" parent="WIyWlLk6GJQsqaUBKTNV-1" vertex="1">
          <mxGeometry x="530" y="-690" width="80" height="80" as="geometry" />
        </mxCell>
        <mxCell id="lydevV3pvDTvXTB2Y1s_-0" style="edgeStyle=orthogonalEdgeStyle;rounded=0;orthogonalLoop=1;jettySize=auto;html=1;entryX=0;entryY=0.5;entryDx=0;entryDy=0;" edge="1" parent="WIyWlLk6GJQsqaUBKTNV-1" source="JRrfS-yPoG9nIiZqx5cY-8" target="JRrfS-yPoG9nIiZqx5cY-28">
          <mxGeometry relative="1" as="geometry" />
        </mxCell>
        <mxCell id="JRrfS-yPoG9nIiZqx5cY-8" value="&lt;font style=&quot;font-size: 10px&quot;&gt;Инициализация переменной &quot;status&quot; &lt;br&gt;значением 2&lt;/font&gt;" style="whiteSpace=wrap;html=1;shadow=0;strokeWidth=1;spacing=6;spacingTop=-4;fillColor=#FFFFCC;" parent="WIyWlLk6GJQsqaUBKTNV-1" vertex="1">
          <mxGeometry x="510" y="-783" width="120" height="50" as="geometry" />
        </mxCell>
        <mxCell id="JpuGTRcXN1fG5s5tW_W7-24" value="Да" style="edgeStyle=orthogonalEdgeStyle;rounded=0;orthogonalLoop=1;jettySize=auto;html=1;exitX=1;exitY=0.5;exitDx=0;exitDy=0;entryX=0;entryY=0.5;entryDx=0;entryDy=0;" parent="WIyWlLk6GJQsqaUBKTNV-1" source="JRrfS-yPoG9nIiZqx5cY-12" target="JRrfS-yPoG9nIiZqx5cY-39" edge="1">
          <mxGeometry relative="1" as="geometry">
            <mxPoint x="560" y="-540" as="targetPoint" />
          </mxGeometry>
        </mxCell>
        <mxCell id="JpuGTRcXN1fG5s5tW_W7-26" value="Нет" style="edgeStyle=orthogonalEdgeStyle;rounded=0;orthogonalLoop=1;jettySize=auto;html=1;exitX=0.5;exitY=1;exitDx=0;exitDy=0;entryX=0.5;entryY=0;entryDx=0;entryDy=0;" parent="WIyWlLk6GJQsqaUBKTNV-1" source="JRrfS-yPoG9nIiZqx5cY-12" edge="1" target="JpuGTRcXN1fG5s5tW_W7-0">
          <mxGeometry relative="1" as="geometry">
            <mxPoint x="405" y="-397" as="targetPoint" />
          </mxGeometry>
        </mxCell>
        <mxCell id="JRrfS-yPoG9nIiZqx5cY-12" value="&lt;span style=&quot;font-size: 10px&quot;&gt;&quot;start&quot; == 0?&lt;/span&gt;" style="rhombus;whiteSpace=wrap;html=1;shadow=0;strokeWidth=1;spacing=6;spacingTop=-4;fillColor=#FFFFCC;" parent="WIyWlLk6GJQsqaUBKTNV-1" vertex="1">
          <mxGeometry x="370" y="-580" width="70" height="80" as="geometry" />
        </mxCell>
        <mxCell id="lydevV3pvDTvXTB2Y1s_-2" value="" style="edgeStyle=orthogonalEdgeStyle;rounded=0;orthogonalLoop=1;jettySize=auto;html=1;" edge="1" parent="WIyWlLk6GJQsqaUBKTNV-1" source="JRrfS-yPoG9nIiZqx5cY-28" target="lydevV3pvDTvXTB2Y1s_-1">
          <mxGeometry relative="1" as="geometry" />
        </mxCell>
        <mxCell id="JRrfS-yPoG9nIiZqx5cY-28" value="&lt;span style=&quot;font-size: 10px&quot;&gt;Выделение памяти для чтения по указателю buff&lt;/span&gt;" style="rounded=1;whiteSpace=wrap;html=1;fontSize=12;glass=0;strokeWidth=1;shadow=0;fillColor=#FFFFCC;" parent="WIyWlLk6GJQsqaUBKTNV-1" vertex="1">
          <mxGeometry x="662.5" y="-778" width="120" height="40" as="geometry" />
        </mxCell>
        <mxCell id="JRrfS-yPoG9nIiZqx5cY-41" style="edgeStyle=orthogonalEdgeStyle;rounded=0;orthogonalLoop=1;jettySize=auto;html=1;exitX=1;exitY=0.5;exitDx=0;exitDy=0;fillColor=#99CCFF;entryX=0;entryY=0.5;entryDx=0;entryDy=0;" parent="WIyWlLk6GJQsqaUBKTNV-1" source="JRrfS-yPoG9nIiZqx5cY-39" target="JRrfS-yPoG9nIiZqx5cY-56" edge="1">
          <mxGeometry relative="1" as="geometry">
            <mxPoint x="437.5" y="-400" as="targetPoint" />
          </mxGeometry>
        </mxCell>
        <mxCell id="JRrfS-yPoG9nIiZqx5cY-39" value="&lt;span style=&quot;font-size: 10px&quot;&gt;Чтение из файла в буффер&amp;nbsp;&lt;/span&gt;" style="rounded=1;whiteSpace=wrap;html=1;fontSize=12;glass=0;strokeWidth=1;shadow=0;fillColor=#99CCFF;" parent="WIyWlLk6GJQsqaUBKTNV-1" vertex="1">
          <mxGeometry x="480" y="-560" width="90" height="40" as="geometry" />
        </mxCell>
        <mxCell id="APc1HOjJ6p6l4onspKUv-7" style="edgeStyle=orthogonalEdgeStyle;rounded=0;orthogonalLoop=1;jettySize=auto;html=1;entryX=0;entryY=0.5;entryDx=0;entryDy=0;fillColor=#99CCFF;" parent="WIyWlLk6GJQsqaUBKTNV-1" source="JRrfS-yPoG9nIiZqx5cY-56" target="JRrfS-yPoG9nIiZqx5cY-57" edge="1">
          <mxGeometry relative="1" as="geometry" />
        </mxCell>
        <mxCell id="JRrfS-yPoG9nIiZqx5cY-56" value="&lt;span style=&quot;font-size: 10px&quot;&gt;Запись &lt;br&gt;buff[status] = &#39;\0&#39;&amp;nbsp;&lt;/span&gt;" style="rounded=1;whiteSpace=wrap;html=1;fontSize=12;glass=0;strokeWidth=1;shadow=0;fillColor=#99CCFF;" parent="WIyWlLk6GJQsqaUBKTNV-1" vertex="1">
          <mxGeometry x="595" y="-560" width="85" height="40" as="geometry" />
        </mxCell>
        <mxCell id="APc1HOjJ6p6l4onspKUv-10" style="edgeStyle=orthogonalEdgeStyle;rounded=0;orthogonalLoop=1;jettySize=auto;html=1;exitX=0.5;exitY=1;exitDx=0;exitDy=0;entryX=0.5;entryY=0;entryDx=0;entryDy=0;" parent="WIyWlLk6GJQsqaUBKTNV-1" source="JRrfS-yPoG9nIiZqx5cY-57" target="JpuGTRcXN1fG5s5tW_W7-0" edge="1">
          <mxGeometry relative="1" as="geometry">
            <mxPoint x="600" y="-280" as="targetPoint" />
            <Array as="points">
              <mxPoint x="760" y="-467" />
              <mxPoint x="405" y="-467" />
            </Array>
          </mxGeometry>
        </mxCell>
        <mxCell id="JRrfS-yPoG9nIiZqx5cY-57" value="&lt;font style=&quot;font-size: 10px&quot;&gt;Return(status)&lt;br&gt;-1 ошибка чтения&lt;br&gt;0 - достигнут OEF&lt;br&gt;&amp;gt;0 - прочитано байт&lt;br&gt;&lt;/font&gt;" style="rounded=1;whiteSpace=wrap;html=1;fontSize=12;glass=0;strokeWidth=1;shadow=0;fillColor=#99CCFF;" parent="WIyWlLk6GJQsqaUBKTNV-1" vertex="1">
          <mxGeometry x="710" y="-571" width="100" height="62" as="geometry" />
        </mxCell>
        <mxCell id="JpuGTRcXN1fG5s5tW_W7-36" value="Да" style="edgeStyle=orthogonalEdgeStyle;rounded=0;orthogonalLoop=1;jettySize=auto;html=1;exitX=0.5;exitY=1;exitDx=0;exitDy=0;" parent="WIyWlLk6GJQsqaUBKTNV-1" source="JRrfS-yPoG9nIiZqx5cY-68" target="JRrfS-yPoG9nIiZqx5cY-71" edge="1">
          <mxGeometry relative="1" as="geometry" />
        </mxCell>
        <mxCell id="JpuGTRcXN1fG5s5tW_W7-38" value="Нет" style="edgeStyle=orthogonalEdgeStyle;rounded=0;orthogonalLoop=1;jettySize=auto;html=1;exitX=1;exitY=0.5;exitDx=0;exitDy=0;" parent="WIyWlLk6GJQsqaUBKTNV-1" source="JRrfS-yPoG9nIiZqx5cY-68" target="JRrfS-yPoG9nIiZqx5cY-72" edge="1">
          <mxGeometry relative="1" as="geometry" />
        </mxCell>
        <mxCell id="JRrfS-yPoG9nIiZqx5cY-68" value="&lt;font style=&quot;font-size: 10px&quot;&gt;Нашли &#39;\n&#39; - ?&lt;br&gt;&lt;/font&gt;" style="rhombus;whiteSpace=wrap;html=1;rounded=1;shadow=0;strokeWidth=1;glass=0;fillColor=#D5E8D4;" parent="WIyWlLk6GJQsqaUBKTNV-1" vertex="1">
          <mxGeometry x="505" y="-376" width="80" height="80" as="geometry" />
        </mxCell>
        <mxCell id="JpuGTRcXN1fG5s5tW_W7-39" style="edgeStyle=orthogonalEdgeStyle;rounded=0;orthogonalLoop=1;jettySize=auto;html=1;exitX=1;exitY=0.5;exitDx=0;exitDy=0;entryX=0.5;entryY=1;entryDx=0;entryDy=0;" parent="WIyWlLk6GJQsqaUBKTNV-1" source="JRrfS-yPoG9nIiZqx5cY-71" target="JRrfS-yPoG9nIiZqx5cY-72" edge="1">
          <mxGeometry relative="1" as="geometry" />
        </mxCell>
        <mxCell id="JRrfS-yPoG9nIiZqx5cY-71" value="&lt;span style=&quot;font-size: 10px&quot;&gt;Заменили &#39;\n&#39; на &#39;\0&#39;&lt;/span&gt;" style="rounded=1;whiteSpace=wrap;html=1;fontSize=12;glass=0;strokeWidth=1;shadow=0;fillColor=#D5E8D4;" parent="WIyWlLk6GJQsqaUBKTNV-1" vertex="1">
          <mxGeometry x="512.5" y="-283" width="65" height="38" as="geometry" />
        </mxCell>
        <mxCell id="JpuGTRcXN1fG5s5tW_W7-40" style="edgeStyle=orthogonalEdgeStyle;rounded=0;orthogonalLoop=1;jettySize=auto;html=1;exitX=0.5;exitY=0;exitDx=0;exitDy=0;entryX=0;entryY=0.5;entryDx=0;entryDy=0;" parent="WIyWlLk6GJQsqaUBKTNV-1" source="JRrfS-yPoG9nIiZqx5cY-72" target="JRrfS-yPoG9nIiZqx5cY-77" edge="1">
          <mxGeometry relative="1" as="geometry" />
        </mxCell>
        <mxCell id="JRrfS-yPoG9nIiZqx5cY-72" value="&lt;span style=&quot;font-size: 10px&quot;&gt;&amp;nbsp;Объединили line и buff&lt;/span&gt;" style="rounded=1;whiteSpace=wrap;html=1;fontSize=12;glass=0;strokeWidth=1;shadow=0;fillColor=#D5E8D4;" parent="WIyWlLk6GJQsqaUBKTNV-1" vertex="1">
          <mxGeometry x="610" y="-356" width="70" height="40" as="geometry" />
        </mxCell>
        <mxCell id="JRrfS-yPoG9nIiZqx5cY-80" value="Да" style="edgeStyle=orthogonalEdgeStyle;rounded=0;orthogonalLoop=1;jettySize=auto;html=1;entryX=0;entryY=0.5;entryDx=0;entryDy=0;exitX=1;exitY=0.5;exitDx=0;exitDy=0;fillColor=#D5E8D4;" parent="WIyWlLk6GJQsqaUBKTNV-1" source="JRrfS-yPoG9nIiZqx5cY-87" target="JRrfS-yPoG9nIiZqx5cY-81" edge="1">
          <mxGeometry relative="1" as="geometry">
            <mxPoint x="1130" y="-570" as="targetPoint" />
            <mxPoint x="1185" y="-500" as="sourcePoint" />
            <Array as="points" />
          </mxGeometry>
        </mxCell>
        <mxCell id="APc1HOjJ6p6l4onspKUv-29" value="Нет" style="edgeStyle=orthogonalEdgeStyle;rounded=0;orthogonalLoop=1;jettySize=auto;html=1;exitX=0.5;exitY=1;exitDx=0;exitDy=0;fillColor=#D5E8D4;" parent="WIyWlLk6GJQsqaUBKTNV-1" source="JRrfS-yPoG9nIiZqx5cY-77" target="JRrfS-yPoG9nIiZqx5cY-87" edge="1">
          <mxGeometry relative="1" as="geometry" />
        </mxCell>
        <mxCell id="JpuGTRcXN1fG5s5tW_W7-41" value="Да" style="edgeStyle=orthogonalEdgeStyle;rounded=0;orthogonalLoop=1;jettySize=auto;html=1;exitX=1;exitY=0.5;exitDx=0;exitDy=0;" parent="WIyWlLk6GJQsqaUBKTNV-1" source="JRrfS-yPoG9nIiZqx5cY-77" target="JRrfS-yPoG9nIiZqx5cY-84" edge="1">
          <mxGeometry relative="1" as="geometry" />
        </mxCell>
        <mxCell id="JRrfS-yPoG9nIiZqx5cY-77" value="&lt;font style=&quot;font-size: 10px&quot;&gt;line == NULL?&lt;/font&gt;" style="rhombus;whiteSpace=wrap;html=1;rounded=1;shadow=0;strokeWidth=1;glass=0;fillColor=#D5E8D4;" parent="WIyWlLk6GJQsqaUBKTNV-1" vertex="1">
          <mxGeometry x="710" y="-446" width="80" height="80" as="geometry" />
        </mxCell>
        <mxCell id="JRrfS-yPoG9nIiZqx5cY-96" style="edgeStyle=orthogonalEdgeStyle;rounded=0;orthogonalLoop=1;jettySize=auto;html=1;exitX=1;exitY=0.5;exitDx=0;exitDy=0;entryX=0;entryY=0.5;entryDx=0;entryDy=0;fillColor=#D5E8D4;" parent="WIyWlLk6GJQsqaUBKTNV-1" source="JRrfS-yPoG9nIiZqx5cY-81" target="JRrfS-yPoG9nIiZqx5cY-95" edge="1">
          <mxGeometry relative="1" as="geometry" />
        </mxCell>
        <mxCell id="JRrfS-yPoG9nIiZqx5cY-81" value="&lt;span style=&quot;font-size: 10px&quot;&gt;Сдвинули start на индекс \n + 1&lt;/span&gt;" style="rounded=1;whiteSpace=wrap;html=1;fontSize=12;glass=0;strokeWidth=1;shadow=0;fillColor=#D5E8D4;" parent="WIyWlLk6GJQsqaUBKTNV-1" vertex="1">
          <mxGeometry x="810" y="-333" width="80" height="40" as="geometry" />
        </mxCell>
        <mxCell id="JpuGTRcXN1fG5s5tW_W7-46" style="edgeStyle=orthogonalEdgeStyle;rounded=0;orthogonalLoop=1;jettySize=auto;html=1;exitX=1;exitY=0.5;exitDx=0;exitDy=0;" parent="WIyWlLk6GJQsqaUBKTNV-1" source="JRrfS-yPoG9nIiZqx5cY-84" edge="1">
          <mxGeometry relative="1" as="geometry">
            <mxPoint x="1050" y="-316" as="targetPoint" />
            <Array as="points">
              <mxPoint x="1050" y="-406" />
            </Array>
          </mxGeometry>
        </mxCell>
        <mxCell id="JRrfS-yPoG9nIiZqx5cY-84" value="&lt;span style=&quot;font-size: 10px&quot;&gt;Return (-1)&lt;br&gt;память не выделилась&lt;br&gt;&lt;/span&gt;" style="rounded=1;whiteSpace=wrap;html=1;fontSize=12;glass=0;strokeWidth=1;shadow=0;fillColor=#D5E8D4;" parent="WIyWlLk6GJQsqaUBKTNV-1" vertex="1">
          <mxGeometry x="910" y="-426" width="120" height="40" as="geometry" />
        </mxCell>
        <mxCell id="JRrfS-yPoG9nIiZqx5cY-89" value="Нет" style="edgeStyle=orthogonalEdgeStyle;rounded=0;orthogonalLoop=1;jettySize=auto;html=1;exitX=0.5;exitY=1;exitDx=0;exitDy=0;fillColor=#D5E8D4;entryX=0;entryY=0.5;entryDx=0;entryDy=0;" parent="WIyWlLk6GJQsqaUBKTNV-1" source="JRrfS-yPoG9nIiZqx5cY-87" target="lydevV3pvDTvXTB2Y1s_-9" edge="1">
          <mxGeometry relative="1" as="geometry">
            <mxPoint x="790" y="-265" as="targetPoint" />
            <mxPoint x="1040" y="-370" as="sourcePoint" />
            <Array as="points">
              <mxPoint x="750" y="-265" />
              <mxPoint x="810" y="-265" />
            </Array>
          </mxGeometry>
        </mxCell>
        <mxCell id="JRrfS-yPoG9nIiZqx5cY-87" value="&lt;font style=&quot;font-size: 10px&quot;&gt;Нашли &#39;\n&#39; и&lt;br&gt;после &#39;\n&#39; нет &#39;\0&#39;&lt;br&gt;&lt;/font&gt;" style="rhombus;whiteSpace=wrap;html=1;rounded=1;shadow=0;strokeWidth=1;glass=0;fillColor=#D5E8D4;" parent="WIyWlLk6GJQsqaUBKTNV-1" vertex="1">
          <mxGeometry x="710" y="-353" width="80" height="80" as="geometry" />
        </mxCell>
        <mxCell id="JRrfS-yPoG9nIiZqx5cY-91" value="&lt;span style=&quot;font-size: 10px&quot;&gt;Return (2)&lt;br&gt;Строка неполная&lt;br&gt;&lt;/span&gt;" style="rounded=1;whiteSpace=wrap;html=1;fontSize=12;glass=0;strokeWidth=1;shadow=0;fillColor=#D5E8D4;" parent="WIyWlLk6GJQsqaUBKTNV-1" vertex="1">
          <mxGeometry x="910" y="-285" width="120" height="40" as="geometry" />
        </mxCell>
        <mxCell id="JpuGTRcXN1fG5s5tW_W7-45" style="edgeStyle=orthogonalEdgeStyle;rounded=0;orthogonalLoop=1;jettySize=auto;html=1;exitX=1;exitY=0.5;exitDx=0;exitDy=0;" parent="WIyWlLk6GJQsqaUBKTNV-1" source="JRrfS-yPoG9nIiZqx5cY-95" edge="1">
          <mxGeometry relative="1" as="geometry">
            <mxPoint x="1050" y="-266" as="targetPoint" />
          </mxGeometry>
        </mxCell>
        <mxCell id="JRrfS-yPoG9nIiZqx5cY-95" value="&lt;span style=&quot;font-size: 10px&quot;&gt;Return (1)&lt;br&gt;Строка полная&lt;br&gt;&lt;/span&gt;" style="rounded=1;whiteSpace=wrap;html=1;fontSize=12;glass=0;strokeWidth=1;shadow=0;fillColor=#D5E8D4;" parent="WIyWlLk6GJQsqaUBKTNV-1" vertex="1">
          <mxGeometry x="910" y="-333" width="120" height="40" as="geometry" />
        </mxCell>
        <mxCell id="JpuGTRcXN1fG5s5tW_W7-27" value="Нет" style="edgeStyle=orthogonalEdgeStyle;rounded=0;orthogonalLoop=1;jettySize=auto;html=1;exitX=0.5;exitY=1;exitDx=0;exitDy=0;" parent="WIyWlLk6GJQsqaUBKTNV-1" source="JpuGTRcXN1fG5s5tW_W7-0" edge="1">
          <mxGeometry relative="1" as="geometry">
            <mxPoint x="405" y="-220" as="targetPoint" />
          </mxGeometry>
        </mxCell>
        <mxCell id="JpuGTRcXN1fG5s5tW_W7-34" value="Да" style="edgeStyle=orthogonalEdgeStyle;rounded=0;orthogonalLoop=1;jettySize=auto;html=1;exitX=1;exitY=0.5;exitDx=0;exitDy=0;entryX=0;entryY=0.5;entryDx=0;entryDy=0;" parent="WIyWlLk6GJQsqaUBKTNV-1" source="JpuGTRcXN1fG5s5tW_W7-0" target="JpuGTRcXN1fG5s5tW_W7-2" edge="1">
          <mxGeometry relative="1" as="geometry">
            <mxPoint x="445" y="-393" as="sourcePoint" />
          </mxGeometry>
        </mxCell>
        <mxCell id="JpuGTRcXN1fG5s5tW_W7-0" value="&lt;span style=&quot;font-size: 10px&quot;&gt;status &amp;gt; 0&lt;/span&gt;" style="rhombus;whiteSpace=wrap;html=1;shadow=0;strokeWidth=1;spacing=6;spacingTop=-4;fillColor=#FFFFCC;" parent="WIyWlLk6GJQsqaUBKTNV-1" vertex="1">
          <mxGeometry x="365" y="-451" width="80" height="80" as="geometry" />
        </mxCell>
        <mxCell id="JpuGTRcXN1fG5s5tW_W7-35" style="edgeStyle=orthogonalEdgeStyle;rounded=0;orthogonalLoop=1;jettySize=auto;html=1;exitX=0.5;exitY=1;exitDx=0;exitDy=0;entryX=0.5;entryY=0;entryDx=0;entryDy=0;" parent="WIyWlLk6GJQsqaUBKTNV-1" source="JpuGTRcXN1fG5s5tW_W7-2" target="JRrfS-yPoG9nIiZqx5cY-68" edge="1">
          <mxGeometry relative="1" as="geometry" />
        </mxCell>
        <mxCell id="JpuGTRcXN1fG5s5tW_W7-2" value="&lt;span style=&quot;font-size: 10px&quot;&gt;Смещение buff на start&lt;br&gt;&lt;/span&gt;" style="rounded=1;whiteSpace=wrap;html=1;fontSize=12;glass=0;strokeWidth=1;shadow=0;fillColor=#D5E8D4;" parent="WIyWlLk6GJQsqaUBKTNV-1" vertex="1">
          <mxGeometry x="490" y="-434" width="120" height="40" as="geometry" />
        </mxCell>
        <mxCell id="JpuGTRcXN1fG5s5tW_W7-20" value="Нет" style="edgeStyle=orthogonalEdgeStyle;rounded=0;orthogonalLoop=1;jettySize=auto;html=1;exitX=1;exitY=0.5;exitDx=0;exitDy=0;" parent="WIyWlLk6GJQsqaUBKTNV-1" source="JpuGTRcXN1fG5s5tW_W7-18" target="JpuGTRcXN1fG5s5tW_W7-21" edge="1">
          <mxGeometry relative="1" as="geometry" />
        </mxCell>
        <mxCell id="JpuGTRcXN1fG5s5tW_W7-48" value="Да" style="edgeStyle=orthogonalEdgeStyle;rounded=0;orthogonalLoop=1;jettySize=auto;html=1;exitX=0.5;exitY=1;exitDx=0;exitDy=0;entryX=0;entryY=0.5;entryDx=0;entryDy=0;" parent="WIyWlLk6GJQsqaUBKTNV-1" source="JpuGTRcXN1fG5s5tW_W7-18" target="JpuGTRcXN1fG5s5tW_W7-19" edge="1">
          <mxGeometry relative="1" as="geometry">
            <Array as="points">
              <mxPoint x="760" y="-600" />
            </Array>
          </mxGeometry>
        </mxCell>
        <mxCell id="JpuGTRcXN1fG5s5tW_W7-18" value="&lt;font style=&quot;font-size: 10px&quot;&gt;status != 1&lt;/font&gt;" style="rhombus;whiteSpace=wrap;html=1;shadow=0;strokeWidth=1;spacing=6;spacingTop=-4;fillColor=#FFFFCC;" parent="WIyWlLk6GJQsqaUBKTNV-1" vertex="1">
          <mxGeometry x="720" y="-690" width="80" height="80" as="geometry" />
        </mxCell>
        <mxCell id="JpuGTRcXN1fG5s5tW_W7-30" value="-" style="edgeStyle=orthogonalEdgeStyle;rounded=0;orthogonalLoop=1;jettySize=auto;html=1;exitX=1;exitY=0.5;exitDx=0;exitDy=0;" parent="WIyWlLk6GJQsqaUBKTNV-1" source="JRrfS-yPoG9nIiZqx5cY-91" edge="1">
          <mxGeometry relative="1" as="geometry">
            <mxPoint x="570" y="-707" as="targetPoint" />
            <mxPoint x="400" y="-147" as="sourcePoint" />
            <Array as="points">
              <mxPoint x="1050" y="-265" />
              <mxPoint x="1050" y="-217" />
              <mxPoint x="350" y="-217" />
              <mxPoint x="350" y="-707" />
            </Array>
          </mxGeometry>
        </mxCell>
        <mxCell id="JpuGTRcXN1fG5s5tW_W7-49" style="edgeStyle=orthogonalEdgeStyle;rounded=0;orthogonalLoop=1;jettySize=auto;html=1;exitX=1;exitY=0.5;exitDx=0;exitDy=0;entryX=0.5;entryY=1;entryDx=0;entryDy=0;" parent="WIyWlLk6GJQsqaUBKTNV-1" source="JpuGTRcXN1fG5s5tW_W7-19" edge="1" target="JpuGTRcXN1fG5s5tW_W7-21">
          <mxGeometry relative="1" as="geometry">
            <mxPoint x="1020" y="-627" as="targetPoint" />
          </mxGeometry>
        </mxCell>
        <mxCell id="JpuGTRcXN1fG5s5tW_W7-19" value="&lt;span style=&quot;font-size: 10px&quot;&gt;Освобождение памяти по указателю&amp;nbsp; buff, &lt;br&gt;buff == NULL&lt;/span&gt;" style="rounded=1;whiteSpace=wrap;html=1;fontSize=12;glass=0;strokeWidth=1;shadow=0;fillColor=#FFFFCC;" parent="WIyWlLk6GJQsqaUBKTNV-1" vertex="1">
          <mxGeometry x="820" y="-620" width="120" height="40" as="geometry" />
        </mxCell>
        <mxCell id="JpuGTRcXN1fG5s5tW_W7-21" value="&lt;font style=&quot;font-size: 10px&quot;&gt;Return(status)&lt;br&gt;&lt;/font&gt;" style="rounded=1;whiteSpace=wrap;html=1;fontSize=12;glass=0;strokeWidth=1;shadow=0;fillColor=#FFFFCC;" parent="WIyWlLk6GJQsqaUBKTNV-1" vertex="1">
          <mxGeometry x="960" y="-670" width="120" height="40" as="geometry" />
        </mxCell>
        <mxCell id="JpuGTRcXN1fG5s5tW_W7-31" value="&lt;font style=&quot;font-size: 10px&quot;&gt;Return(-1)&lt;br&gt;&lt;/font&gt;" style="rounded=1;whiteSpace=wrap;html=1;fontSize=12;glass=0;strokeWidth=1;shadow=0;fillColor=#FFFFCC;" parent="WIyWlLk6GJQsqaUBKTNV-1" vertex="1">
          <mxGeometry x="960" y="-778" width="120" height="40" as="geometry" />
        </mxCell>
        <mxCell id="lydevV3pvDTvXTB2Y1s_-3" value="Да" style="edgeStyle=orthogonalEdgeStyle;rounded=0;orthogonalLoop=1;jettySize=auto;html=1;exitX=1;exitY=0.5;exitDx=0;exitDy=0;entryX=0;entryY=0.5;entryDx=0;entryDy=0;" edge="1" parent="WIyWlLk6GJQsqaUBKTNV-1" source="lydevV3pvDTvXTB2Y1s_-1" target="JpuGTRcXN1fG5s5tW_W7-31">
          <mxGeometry relative="1" as="geometry" />
        </mxCell>
        <mxCell id="lydevV3pvDTvXTB2Y1s_-4" value="Нет" style="edgeStyle=orthogonalEdgeStyle;rounded=0;orthogonalLoop=1;jettySize=auto;html=1;exitX=0.5;exitY=1;exitDx=0;exitDy=0;" edge="1" parent="WIyWlLk6GJQsqaUBKTNV-1" source="lydevV3pvDTvXTB2Y1s_-1" target="JRrfS-yPoG9nIiZqx5cY-5">
          <mxGeometry relative="1" as="geometry">
            <mxPoint x="832" y="-709.96" as="sourcePoint" />
            <Array as="points">
              <mxPoint x="570" y="-718" />
            </Array>
          </mxGeometry>
        </mxCell>
        <mxCell id="lydevV3pvDTvXTB2Y1s_-1" value="buff == NULL" style="rhombus;whiteSpace=wrap;html=1;rounded=1;shadow=0;strokeWidth=1;fillColor=#FFFFCC;glass=0;" vertex="1" parent="WIyWlLk6GJQsqaUBKTNV-1">
          <mxGeometry x="800" y="-798" width="80" height="80" as="geometry" />
        </mxCell>
        <mxCell id="lydevV3pvDTvXTB2Y1s_-10" style="edgeStyle=orthogonalEdgeStyle;rounded=0;orthogonalLoop=1;jettySize=auto;html=1;exitX=1;exitY=0.5;exitDx=0;exitDy=0;entryX=0;entryY=0.5;entryDx=0;entryDy=0;" edge="1" parent="WIyWlLk6GJQsqaUBKTNV-1" source="lydevV3pvDTvXTB2Y1s_-9" target="JRrfS-yPoG9nIiZqx5cY-91">
          <mxGeometry relative="1" as="geometry" />
        </mxCell>
        <mxCell id="lydevV3pvDTvXTB2Y1s_-9" value="&lt;span style=&quot;font-size: 10px&quot;&gt;start = 0&lt;/span&gt;" style="rounded=1;whiteSpace=wrap;html=1;fontSize=12;glass=0;strokeWidth=1;shadow=0;fillColor=#D5E8D4;" vertex="1" parent="WIyWlLk6GJQsqaUBKTNV-1">
          <mxGeometry x="810" y="-285" width="80" height="40" as="geometry" />
        </mxCell>
      </root>
    </mxGraphModel>
  </diagram>
</mxfile>
